<svg width="24" height="24" viewBox="0 0 24 24" fill="none" xmlns="http://www.w3.org/2000/svg">
<g id="icon-close">
<path id="Vector" d="M19.7196 18.1773C19.7893 18.247 19.8446 18.3297 19.8823 18.4208C19.92 18.5118 19.9394 18.6094 19.9394 18.7079C19.9394 18.8065 19.92 18.9041 19.8823 18.9951C19.8446 19.0862 19.7893 19.1689 19.7196 19.2386C19.65 19.3082 19.5672 19.3635 19.4762 19.4012C19.3851 19.4389 19.2876 19.4584 19.189 19.4584C19.0905 19.4584 18.9929 19.4389 18.9018 19.4012C18.8108 19.3635 18.7281 19.3082 18.6584 19.2386L12.439 13.0182L6.21964 19.2386C6.07891 19.3793 5.88804 19.4584 5.68902 19.4584C5.48999 19.4584 5.29912 19.3793 5.15839 19.2386C5.01766 19.0978 4.9386 18.907 4.9386 18.7079C4.9386 18.5089 5.01766 18.318 5.15839 18.1773L11.3787 11.9579L5.15839 5.73856C5.01766 5.59783 4.9386 5.40696 4.9386 5.20794C4.9386 5.00891 5.01766 4.81804 5.15839 4.67731C5.29912 4.53658 5.48999 4.45752 5.68902 4.45752C5.88804 4.45752 6.07891 4.53658 6.21964 4.67731L12.439 10.8976L18.6584 4.67731C18.7991 4.53658 18.99 4.45752 19.189 4.45752C19.388 4.45752 19.5789 4.53658 19.7196 4.67731C19.8604 4.81804 19.9394 5.00891 19.9394 5.20794C19.9394 5.40696 19.8604 5.59783 19.7196 5.73856L13.4993 11.9579L19.7196 18.1773Z" fill="#231F20"/>
</g>
</svg>
